<?xml version="1.0" standalone="no"?>
<!DOCTYPE svg PUBLIC "-//W3C//DTD SVG 20010904//EN"
 "http://www.w3.org/TR/2001/REC-SVG-20010904/DTD/svg10.dtd">
<svg version="1.0" xmlns="http://www.w3.org/2000/svg"
 width="163.000000pt" height="180.000000pt" viewBox="0 0 163.000000 180.000000"
 preserveAspectRatio="xMidYMid meet">

<g transform="translate(0.000000,180.000000) scale(0.100000,-0.100000)"
fill="#000000" stroke="none">
<path d="M785 1450 c-26 -10 -52 -40 -57 -65 -3 -17 -12 -20 -61 -23 -57 -3
-57 -3 -57 -35 0 -18 7 -43 16 -55 15 -21 21 -22 185 -22 156 0 171 2 189 20
12 12 20 33 20 55 l0 35 -60 0 c-53 0 -60 2 -60 19 0 46 -70 89 -115 71z m49
-53 c28 -20 18 -61 -17 -65 -35 -4 -53 33 -29 61 18 20 23 21 46 4z"/>
<path d="M514 1310 c-54 -22 -54 -23 -54 -453 l0 -399 29 -29 29 -29 297 0
297 0 29 29 29 29 0 401 0 400 -23 27 c-17 20 -33 27 -63 28 -48 1 -57 -27 -9
-32 17 -2 36 -8 43 -14 17 -15 18 -798 0 -816 -9 -9 -90 -12 -305 -12 l-293 0
-14 23 c-13 19 -15 82 -15 397 0 415 0 416 61 422 21 2 33 8 33 18 0 18 -40
23 -71 10z"/>
<path d="M635 1110 c-19 -20 -32 -27 -39 -20 -12 12 -46 13 -46 2 0 -5 13 -20
28 -35 l28 -27 43 44 c24 24 40 49 37 55 -11 17 -20 13 -51 -19z"/>
<path d="M740 1085 c0 -13 22 -15 165 -13 102 2 165 7 165 13 0 6 -63 11 -165
13 -143 2 -165 0 -165 -13z"/>
<path d="M635 950 c-25 -26 -30 -28 -45 -15 -10 9 -20 11 -30 5 -12 -8 -10
-15 16 -41 l31 -31 41 44 c23 24 42 49 42 56 0 21 -25 13 -55 -18z"/>
<path d="M741 936 c-6 -7 -8 -16 -4 -19 8 -9 327 -9 336 -1 3 3 3 12 1 19 -8
19 -318 19 -333 1z"/>
<path d="M635 790 c-27 -28 -30 -29 -47 -13 -14 13 -21 14 -30 5 -10 -10 -6
-19 18 -42 l30 -30 43 44 c24 24 40 49 37 55 -11 17 -20 13 -51 -19z"/>
<path d="M747 783 c-4 -3 -7 -12 -7 -20 0 -10 34 -13 163 -13 90 0 166 3 170
6 3 3 3 12 0 20 -4 11 -37 14 -162 14 -87 0 -161 -3 -164 -7z"/>
<path d="M635 630 c-27 -28 -30 -29 -47 -13 -14 13 -21 14 -30 5 -9 -9 -6 -18
12 -37 13 -14 29 -25 35 -25 15 0 85 73 85 88 0 21 -25 13 -55 -18z"/>
<path d="M747 623 c-4 -3 -7 -12 -7 -20 0 -10 34 -13 163 -13 90 0 166 3 170
6 3 3 3 12 0 20 -4 11 -37 14 -162 14 -87 0 -161 -3 -164 -7z"/>
</g>
</svg>
